<mxfile host="Electron" modified="2024-07-02T15:28:38.081Z" agent="Mozilla/5.0 (Windows NT 10.0; Win64; x64) AppleWebKit/537.36 (KHTML, like Gecko) draw.io/24.4.8 Chrome/124.0.6367.207 Electron/30.0.6 Safari/537.36" etag="IkbWjZX5xnHuMBvkXHHZ" version="24.4.8" type="device">
  <diagram id="6FUi87LX8RtJV-GTsEk7" name="SAGAART_Логическая диаграмма">
    <mxGraphModel dx="4975" dy="2410" grid="1" gridSize="10" guides="1" tooltips="1" connect="1" arrows="1" fold="1" page="1" pageScale="1" pageWidth="827" pageHeight="1169" math="0" shadow="0">
      <root>
        <mxCell id="0" />
        <mxCell id="1" parent="0" />
        <mxCell id="nbplSKaoUEKsHxX8iZtq-1" value="Пользователь" style="swimlane;childLayout=stackLayout;horizontal=1;startSize=28;horizontalStack=0;rounded=1;fontSize=20;fontStyle=1;strokeWidth=2;resizeParent=0;resizeLast=1;shadow=0;dashed=0;align=center;labelBackgroundColor=#FFFFFF;labelBorderColor=none;container=0;" parent="1" vertex="1">
          <mxGeometry x="250" y="1142.5" width="220" height="150" as="geometry" />
        </mxCell>
        <mxCell id="3RPS1Pi8BJswCtEHdRL8-2" value="*Логин&#xa;Пароль&#xa;Фамилия&#xa;Имя&#xa;Отчество&#xa;Электронная почта&#xa;Номер телефона&#xa;Изображение" style="text;whiteSpace=wrap;html=1;" vertex="1" parent="nbplSKaoUEKsHxX8iZtq-1">
          <mxGeometry y="28" width="220" height="122" as="geometry" />
        </mxCell>
        <mxCell id="nbplSKaoUEKsHxX8iZtq-7" value="" style="fontSize=12;html=1;endArrow=ERzeroToMany;startArrow=ERmandOne;rounded=0;exitX=0.998;exitY=0.401;exitDx=0;exitDy=0;exitPerimeter=0;entryX=-0.003;entryY=0.421;entryDx=0;entryDy=0;entryPerimeter=0;" parent="1" source="3RPS1Pi8BJswCtEHdRL8-2" target="nbplSKaoUEKsHxX8iZtq-10" edge="1">
          <mxGeometry width="100" height="100" relative="1" as="geometry">
            <mxPoint x="532.5" y="1317.63" as="sourcePoint" />
            <mxPoint x="620" y="1220" as="targetPoint" />
          </mxGeometry>
        </mxCell>
        <mxCell id="jByyaHIUCgrPr7PjAFbw-26" value="Создает" style="edgeLabel;html=1;align=center;verticalAlign=middle;resizable=0;points=[];" parent="nbplSKaoUEKsHxX8iZtq-7" connectable="0" vertex="1">
          <mxGeometry x="0.0254" y="-2" relative="1" as="geometry">
            <mxPoint as="offset" />
          </mxGeometry>
        </mxCell>
        <mxCell id="nbplSKaoUEKsHxX8iZtq-8" value="" style="fontSize=12;html=1;endArrow=ERoneToMany;startArrow=ERmandOne;rounded=0;entryX=0.5;entryY=1;entryDx=0;entryDy=0;exitX=0.5;exitY=0;exitDx=0;exitDy=0;" parent="1" source="aespSKR9xNxKYvrnNXnA-3" target="nbplSKaoUEKsHxX8iZtq-12" edge="1">
          <mxGeometry width="100" height="100" relative="1" as="geometry">
            <mxPoint x="1050" y="1480" as="sourcePoint" />
            <mxPoint x="1023" y="1260" as="targetPoint" />
          </mxGeometry>
        </mxCell>
        <mxCell id="jByyaHIUCgrPr7PjAFbw-19" value="Содержит" style="edgeLabel;html=1;align=center;verticalAlign=middle;resizable=0;points=[];" parent="nbplSKaoUEKsHxX8iZtq-8" connectable="0" vertex="1">
          <mxGeometry x="-0.0152" y="2" relative="1" as="geometry">
            <mxPoint as="offset" />
          </mxGeometry>
        </mxCell>
        <mxCell id="nbplSKaoUEKsHxX8iZtq-9" value="Заказ" style="swimlane;childLayout=stackLayout;horizontal=1;startSize=30;horizontalStack=0;rounded=1;fontSize=20;fontStyle=1;strokeWidth=2;resizeParent=0;resizeLast=1;shadow=0;dashed=0;align=center;labelBackgroundColor=#FFFFFF;labelBorderColor=none;fillColor=#FFFFFF;" parent="1" vertex="1">
          <mxGeometry x="630" y="1142.5" width="190" height="150" as="geometry" />
        </mxCell>
        <mxCell id="nbplSKaoUEKsHxX8iZtq-10" value="*Номер заказа&#xa;Дата заказа&#xa;Сумма заказ&#xa;Статус заказа&#xa;&#xa;" style="align=left;strokeColor=none;fillColor=none;spacingLeft=4;fontSize=12;verticalAlign=top;resizable=0;rotatable=0;part=1;labelBackgroundColor=#FFFFFF;labelBorderColor=none;" parent="nbplSKaoUEKsHxX8iZtq-9" vertex="1">
          <mxGeometry y="30" width="190" height="120" as="geometry" />
        </mxCell>
        <mxCell id="nbplSKaoUEKsHxX8iZtq-11" value="Товары в заказе" style="swimlane;childLayout=stackLayout;horizontal=1;startSize=30;horizontalStack=0;rounded=1;fontSize=20;fontStyle=1;strokeWidth=2;resizeParent=0;resizeLast=1;shadow=0;dashed=0;align=center;labelBackgroundColor=#FFFFFF;labelBorderColor=none;fillColor=#FFFFFF;" parent="1" vertex="1">
          <mxGeometry x="950" y="1155" width="180" height="125" as="geometry" />
        </mxCell>
        <mxCell id="nbplSKaoUEKsHxX8iZtq-12" value="*Артикул товара&#xa;*Номер заказа&#xa;Количество" style="align=left;strokeColor=none;fillColor=none;spacingLeft=4;fontSize=12;verticalAlign=top;resizable=0;rotatable=0;part=1;labelBackgroundColor=#FFFFFF;labelBorderColor=none;" parent="nbplSKaoUEKsHxX8iZtq-11" vertex="1">
          <mxGeometry y="30" width="180" height="95" as="geometry" />
        </mxCell>
        <mxCell id="nbplSKaoUEKsHxX8iZtq-14" value="" style="fontSize=12;html=1;endArrow=ERoneToMany;startArrow=ERmandOne;rounded=0;entryX=-0.014;entryY=0.37;entryDx=0;entryDy=0;exitX=0.999;exitY=0.379;exitDx=0;exitDy=0;exitPerimeter=0;entryPerimeter=0;" parent="1" source="nbplSKaoUEKsHxX8iZtq-10" target="nbplSKaoUEKsHxX8iZtq-12" edge="1">
          <mxGeometry width="100" height="100" relative="1" as="geometry">
            <mxPoint x="870" y="1415" as="sourcePoint" />
            <mxPoint x="930" y="1415" as="targetPoint" />
          </mxGeometry>
        </mxCell>
        <mxCell id="jByyaHIUCgrPr7PjAFbw-27" value="Определяет" style="edgeLabel;html=1;align=center;verticalAlign=middle;resizable=0;points=[];" parent="nbplSKaoUEKsHxX8iZtq-14" connectable="0" vertex="1">
          <mxGeometry x="-0.0802" y="-1" relative="1" as="geometry">
            <mxPoint as="offset" />
          </mxGeometry>
        </mxCell>
        <mxCell id="nbplSKaoUEKsHxX8iZtq-18" value="Доставка" style="swimlane;childLayout=stackLayout;horizontal=1;startSize=30;horizontalStack=0;rounded=1;fontSize=20;fontStyle=1;strokeWidth=2;resizeParent=0;resizeLast=1;shadow=0;dashed=0;align=center;labelBackgroundColor=#FFFFFF;labelBorderColor=none;fillColor=#FFFFFF;" parent="1" vertex="1">
          <mxGeometry x="637" y="1370" width="190" height="130" as="geometry" />
        </mxCell>
        <mxCell id="nbplSKaoUEKsHxX8iZtq-19" value="*Номер доставки&#xa;Дата доставки&#xa;Индекс&#xa;Город &#xa;Улица &#xa;Номер дома&#xa;" style="align=left;strokeColor=none;fillColor=none;spacingLeft=4;fontSize=12;verticalAlign=top;resizable=0;rotatable=0;part=1;labelBackgroundColor=#FFFFFF;labelBorderColor=none;" parent="nbplSKaoUEKsHxX8iZtq-18" vertex="1">
          <mxGeometry y="30" width="190" height="110" as="geometry" />
        </mxCell>
        <mxCell id="jByyaHIUCgrPr7PjAFbw-36" value="&#xa;" style="align=left;strokeColor=none;fillColor=none;spacingLeft=4;fontSize=12;verticalAlign=top;resizable=0;rotatable=0;part=1;labelBackgroundColor=#FFFFFF;labelBorderColor=none;" parent="nbplSKaoUEKsHxX8iZtq-18" vertex="1">
          <mxGeometry y="140" width="190" height="-10" as="geometry" />
        </mxCell>
        <mxCell id="nbplSKaoUEKsHxX8iZtq-20" value="Оплата" style="swimlane;childLayout=stackLayout;horizontal=1;startSize=30;horizontalStack=0;rounded=1;fontSize=20;fontStyle=1;strokeWidth=2;resizeParent=0;resizeLast=1;shadow=0;dashed=0;align=center;labelBackgroundColor=#FFFFFF;labelBorderColor=none;" parent="1" vertex="1">
          <mxGeometry x="620" y="940" width="180" height="100" as="geometry" />
        </mxCell>
        <mxCell id="nbplSKaoUEKsHxX8iZtq-21" value="*Номер оплаты&#xa;Способ оплаты&#xa;Статус оплаты&#xa;Дата оплаты" style="align=left;strokeColor=none;fillColor=none;spacingLeft=4;fontSize=12;verticalAlign=top;resizable=0;rotatable=0;part=1;labelBackgroundColor=#FFFFFF;labelBorderColor=none;" parent="nbplSKaoUEKsHxX8iZtq-20" vertex="1">
          <mxGeometry y="30" width="180" height="70" as="geometry" />
        </mxCell>
        <mxCell id="nbplSKaoUEKsHxX8iZtq-25" value="" style="fontSize=12;html=1;endArrow=ERzeroToOne;startArrow=ERmandOne;rounded=0;entryX=0.541;entryY=1.017;entryDx=0;entryDy=0;entryPerimeter=0;exitX=0.464;exitY=0.004;exitDx=0;exitDy=0;exitPerimeter=0;" parent="1" source="nbplSKaoUEKsHxX8iZtq-9" target="nbplSKaoUEKsHxX8iZtq-21" edge="1">
          <mxGeometry width="100" height="100" relative="1" as="geometry">
            <mxPoint x="700" y="1090" as="sourcePoint" />
            <mxPoint x="890" y="950" as="targetPoint" />
          </mxGeometry>
        </mxCell>
        <mxCell id="jByyaHIUCgrPr7PjAFbw-4" value="Содержит" style="edgeLabel;html=1;align=center;verticalAlign=middle;resizable=0;points=[];" parent="nbplSKaoUEKsHxX8iZtq-25" connectable="0" vertex="1">
          <mxGeometry x="-0.0043" relative="1" as="geometry">
            <mxPoint as="offset" />
          </mxGeometry>
        </mxCell>
        <mxCell id="nbplSKaoUEKsHxX8iZtq-26" value="" style="fontSize=12;html=1;endArrow=ERmandOne;startArrow=ERmandOne;rounded=0;exitX=0.457;exitY=-0.024;exitDx=0;exitDy=0;exitPerimeter=0;entryX=0.5;entryY=1;entryDx=0;entryDy=0;" parent="1" source="nbplSKaoUEKsHxX8iZtq-18" target="nbplSKaoUEKsHxX8iZtq-10" edge="1">
          <mxGeometry width="100" height="100" relative="1" as="geometry">
            <mxPoint x="890" y="1440" as="sourcePoint" />
            <mxPoint x="725" y="1310" as="targetPoint" />
          </mxGeometry>
        </mxCell>
        <mxCell id="jByyaHIUCgrPr7PjAFbw-28" value="Содержит" style="edgeLabel;html=1;align=center;verticalAlign=middle;resizable=0;points=[];" parent="nbplSKaoUEKsHxX8iZtq-26" connectable="0" vertex="1">
          <mxGeometry x="0.1307" y="-2" relative="1" as="geometry">
            <mxPoint as="offset" />
          </mxGeometry>
        </mxCell>
        <mxCell id="aespSKR9xNxKYvrnNXnA-1" value="" style="fontSize=12;html=1;endArrow=ERoneToMany;startArrow=ERmandOne;rounded=0;entryX=0.991;entryY=0.132;entryDx=0;entryDy=0;exitX=-0.016;exitY=0.32;exitDx=0;exitDy=0;exitPerimeter=0;entryPerimeter=0;" parent="1" source="aespSKR9xNxKYvrnNXnA-6" target="aespSKR9xNxKYvrnNXnA-4" edge="1">
          <mxGeometry width="100" height="100" relative="1" as="geometry">
            <mxPoint x="1360" y="1940" as="sourcePoint" />
            <mxPoint x="1450" y="2070" as="targetPoint" />
          </mxGeometry>
        </mxCell>
        <mxCell id="jByyaHIUCgrPr7PjAFbw-23" value="Принадлежит" style="edgeLabel;html=1;align=center;verticalAlign=middle;resizable=0;points=[];" parent="aespSKR9xNxKYvrnNXnA-1" connectable="0" vertex="1">
          <mxGeometry x="-0.1311" y="-1" relative="1" as="geometry">
            <mxPoint as="offset" />
          </mxGeometry>
        </mxCell>
        <mxCell id="aespSKR9xNxKYvrnNXnA-3" value="Товар живопись" style="swimlane;childLayout=stackLayout;horizontal=1;startSize=30;horizontalStack=0;rounded=1;fontSize=20;fontStyle=1;strokeWidth=2;resizeParent=0;resizeLast=1;shadow=0;dashed=0;align=center;labelBackgroundColor=#FFFFFF;labelBorderColor=none;" parent="1" vertex="1">
          <mxGeometry x="950" y="1480" width="180" height="410" as="geometry" />
        </mxCell>
        <mxCell id="aespSKR9xNxKYvrnNXnA-4" value="* Id Товара&#xa;Артикул товара&#xa;*id_Автора&#xa;*Наименование категории&#xa;Стиль&#xa;Жанр&#xa;Название&#xa;Описание товара&#xa;*Цена&#xa;Превью изображение&#xa;*Фото&#xa;Горизонтальная?&#xa;Высота&#xa;Ширина&#xa;Материал работы&#xa;Материал планшета&#xa;Количество продаж картины&#xa;Количество работ художника&#xa;Страна&#xa;Изображение товара&#xa;Год создания&#xa;Уникальность работы&#xa;Модератор&#xa;Дата модерации" style="align=left;strokeColor=none;fillColor=none;spacingLeft=4;fontSize=12;verticalAlign=top;resizable=0;rotatable=0;part=1;labelBackgroundColor=#FFFFFF;labelBorderColor=none;" parent="aespSKR9xNxKYvrnNXnA-3" vertex="1">
          <mxGeometry y="30" width="180" height="380" as="geometry" />
        </mxCell>
        <mxCell id="aespSKR9xNxKYvrnNXnA-5" value="Категория товара" style="swimlane;childLayout=stackLayout;horizontal=1;startSize=30;horizontalStack=0;rounded=1;fontSize=20;fontStyle=1;strokeWidth=2;resizeParent=0;resizeLast=1;shadow=0;dashed=0;align=center;labelBackgroundColor=#FFFFFF;labelBorderColor=none;arcSize=23;" parent="1" vertex="1">
          <mxGeometry x="1280" y="1510" width="210" height="85" as="geometry" />
        </mxCell>
        <mxCell id="aespSKR9xNxKYvrnNXnA-6" value="*Наименование категории&#xa;Описание категории" style="align=left;strokeColor=none;fillColor=none;spacingLeft=4;fontSize=12;verticalAlign=top;resizable=0;rotatable=0;part=1;labelBackgroundColor=#FFFFFF;labelBorderColor=none;" parent="aespSKR9xNxKYvrnNXnA-5" vertex="1">
          <mxGeometry y="30" width="210" height="55" as="geometry" />
        </mxCell>
        <mxCell id="aespSKR9xNxKYvrnNXnA-7" value="Тип подписки" style="swimlane;childLayout=stackLayout;horizontal=1;startSize=30;horizontalStack=0;rounded=1;fontSize=20;fontStyle=1;strokeWidth=2;resizeParent=0;resizeLast=1;shadow=0;dashed=0;align=center;labelBackgroundColor=#FFFFFF;labelBorderColor=none;" parent="1" vertex="1">
          <mxGeometry x="210" y="660" width="280" height="100" as="geometry">
            <mxRectangle x="530" y="-750" width="310" height="40" as="alternateBounds" />
          </mxGeometry>
        </mxCell>
        <mxCell id="aespSKR9xNxKYvrnNXnA-8" value="*Наименование подписки&#xa;*Стоимость подписки" style="align=left;strokeColor=none;fillColor=none;spacingLeft=4;fontSize=12;verticalAlign=top;resizable=0;rotatable=0;part=1;labelBackgroundColor=#FFFFFF;labelBorderColor=none;" parent="aespSKR9xNxKYvrnNXnA-7" vertex="1">
          <mxGeometry y="30" width="280" height="70" as="geometry" />
        </mxCell>
        <mxCell id="aespSKR9xNxKYvrnNXnA-9" value=" Подписка" style="swimlane;childLayout=stackLayout;horizontal=1;startSize=30;horizontalStack=0;rounded=1;fontSize=20;fontStyle=1;strokeWidth=2;resizeParent=0;resizeLast=1;shadow=0;dashed=0;align=center;labelBackgroundColor=#FFFFFF;labelBorderColor=none;" parent="1" vertex="1">
          <mxGeometry x="220" y="875" width="260" height="110" as="geometry">
            <mxRectangle x="530" y="-750" width="310" height="40" as="alternateBounds" />
          </mxGeometry>
        </mxCell>
        <mxCell id="aespSKR9xNxKYvrnNXnA-10" value="*Наименование подписки&#xa;Дата начала подписки&#xa;Дата окончания&#xa;Статус подписки&#xa;" style="align=left;strokeColor=none;fillColor=none;spacingLeft=4;fontSize=12;verticalAlign=top;resizable=0;rotatable=0;part=1;labelBackgroundColor=#FFFFFF;labelBorderColor=none;" parent="aespSKR9xNxKYvrnNXnA-9" vertex="1">
          <mxGeometry y="30" width="260" height="80" as="geometry" />
        </mxCell>
        <mxCell id="DgBcW-xIMPE_JQ0PkF-i-2" value="Тип пользователя" style="swimlane;childLayout=stackLayout;horizontal=1;startSize=30;horizontalStack=0;rounded=1;fontSize=20;fontStyle=1;strokeWidth=2;resizeParent=0;resizeLast=1;shadow=0;dashed=0;align=center;labelBackgroundColor=#FFFFFF;labelBorderColor=none;" parent="1" vertex="1">
          <mxGeometry x="-130" y="1177.5" width="280" height="80" as="geometry">
            <mxRectangle x="530" y="-750" width="310" height="40" as="alternateBounds" />
          </mxGeometry>
        </mxCell>
        <mxCell id="DgBcW-xIMPE_JQ0PkF-i-3" value="*Наименование типа пользователя" style="align=left;strokeColor=none;fillColor=none;spacingLeft=4;fontSize=12;verticalAlign=top;resizable=0;rotatable=0;part=1;labelBackgroundColor=#FFFFFF;labelBorderColor=none;" parent="DgBcW-xIMPE_JQ0PkF-i-2" vertex="1">
          <mxGeometry y="30" width="280" height="50" as="geometry" />
        </mxCell>
        <mxCell id="DgBcW-xIMPE_JQ0PkF-i-4" value="Автор" style="swimlane;childLayout=stackLayout;horizontal=1;startSize=30;horizontalStack=0;rounded=1;fontSize=20;fontStyle=1;strokeWidth=2;resizeParent=0;resizeLast=1;shadow=0;dashed=0;align=center;labelBackgroundColor=#FFFFFF;labelBorderColor=none;" parent="1" vertex="1">
          <mxGeometry x="-70" y="1340" width="220" height="280" as="geometry" />
        </mxCell>
        <mxCell id="DgBcW-xIMPE_JQ0PkF-i-5" value="* id Автора&#xa;Псевдоним&#xa;Видеовизитка&#xa;Пол&#xa;Год рождения&#xa;Город рождения&#xa;Дата смерти&#xa;Адрес&#xa;Биография&#xa;Solo shows&#xa;Solo shows gallery&#xa;Group shows&#xa;Group shows gallery&#xa;Group shows artist&#xa;Collected by private collectors&#xa;Collected by major institutions&#xa;Winner of a top industry award" style="align=left;strokeColor=none;fillColor=none;spacingLeft=4;fontSize=12;verticalAlign=top;resizable=0;rotatable=0;part=1;labelBackgroundColor=#FFFFFF;labelBorderColor=none;" parent="DgBcW-xIMPE_JQ0PkF-i-4" vertex="1">
          <mxGeometry y="30" width="220" height="250" as="geometry" />
        </mxCell>
        <mxCell id="46ucOJ7WEjo63IjfkthK-11" value="" style="edgeStyle=elbowEdgeStyle;fontSize=12;html=1;endArrow=ERzeroToMany;startArrow=ERmandOne;rounded=0;entryX=0;entryY=0.5;entryDx=0;entryDy=0;" parent="1" target="aespSKR9xNxKYvrnNXnA-3" edge="1">
          <mxGeometry width="100" height="100" relative="1" as="geometry">
            <mxPoint x="390" y="1292.5" as="sourcePoint" />
            <mxPoint x="846.7600000000002" y="1629" as="targetPoint" />
            <Array as="points">
              <mxPoint x="390" y="1562.5" />
            </Array>
          </mxGeometry>
        </mxCell>
        <mxCell id="jByyaHIUCgrPr7PjAFbw-9" value="Размещает" style="edgeLabel;html=1;align=center;verticalAlign=middle;resizable=0;points=[];" parent="46ucOJ7WEjo63IjfkthK-11" connectable="0" vertex="1">
          <mxGeometry x="-0.0629" y="3" relative="1" as="geometry">
            <mxPoint as="offset" />
          </mxGeometry>
        </mxCell>
        <mxCell id="46ucOJ7WEjo63IjfkthK-15" value="" style="fontSize=12;html=1;endArrow=ERmandOne;startArrow=ERmandOne;rounded=0;entryX=0.5;entryY=1;entryDx=0;entryDy=0;exitX=0.471;exitY=-0.001;exitDx=0;exitDy=0;exitPerimeter=0;" parent="1" source="aespSKR9xNxKYvrnNXnA-9" edge="1">
          <mxGeometry width="100" height="100" relative="1" as="geometry">
            <mxPoint x="341" y="860" as="sourcePoint" />
            <mxPoint x="341" y="760" as="targetPoint" />
          </mxGeometry>
        </mxCell>
        <mxCell id="jByyaHIUCgrPr7PjAFbw-5" value="Содержит" style="edgeLabel;html=1;align=center;verticalAlign=middle;resizable=0;points=[];" parent="46ucOJ7WEjo63IjfkthK-15" connectable="0" vertex="1">
          <mxGeometry x="0.1765" y="1" relative="1" as="geometry">
            <mxPoint as="offset" />
          </mxGeometry>
        </mxCell>
        <mxCell id="C1Eng04ThhKMWw6UEXgd-1" value="&lt;font style=&quot;font-size: 36px;&quot;&gt;&lt;b&gt;Логическая ER-модель&lt;/b&gt;&lt;/font&gt;" style="text;whiteSpace=wrap;html=1;" parent="1" vertex="1">
          <mxGeometry x="190" y="540" width="420" height="60" as="geometry" />
        </mxCell>
        <mxCell id="C1Eng04ThhKMWw6UEXgd-2" value="" style="fontSize=12;html=1;endArrow=ERmandOne;startArrow=ERmandOne;rounded=0;entryX=1;entryY=0.25;entryDx=0;entryDy=0;exitX=-0.012;exitY=0.416;exitDx=0;exitDy=0;exitPerimeter=0;" parent="1" target="DgBcW-xIMPE_JQ0PkF-i-3" edge="1" source="3RPS1Pi8BJswCtEHdRL8-2">
          <mxGeometry width="100" height="100" relative="1" as="geometry">
            <mxPoint x="240" y="1233" as="sourcePoint" />
            <mxPoint x="51" y="1320" as="targetPoint" />
          </mxGeometry>
        </mxCell>
        <mxCell id="jByyaHIUCgrPr7PjAFbw-7" value="Содержит" style="edgeLabel;html=1;align=center;verticalAlign=middle;resizable=0;points=[];" parent="C1Eng04ThhKMWw6UEXgd-2" connectable="0" vertex="1">
          <mxGeometry x="-0.1198" y="-2" relative="1" as="geometry">
            <mxPoint as="offset" />
          </mxGeometry>
        </mxCell>
        <mxCell id="C1Eng04ThhKMWw6UEXgd-4" value="" style="fontSize=12;html=1;endArrow=ERzeroToOne;startArrow=ERmandOne;rounded=0;entryX=0.461;entryY=0.985;entryDx=0;entryDy=0;entryPerimeter=0;" parent="1" target="aespSKR9xNxKYvrnNXnA-10" edge="1">
          <mxGeometry width="100" height="100" relative="1" as="geometry">
            <mxPoint x="340" y="1140" as="sourcePoint" />
            <mxPoint x="340" y="1010" as="targetPoint" />
          </mxGeometry>
        </mxCell>
        <mxCell id="jByyaHIUCgrPr7PjAFbw-6" value="Оформляет" style="edgeLabel;html=1;align=center;verticalAlign=middle;resizable=0;points=[];" parent="C1Eng04ThhKMWw6UEXgd-4" connectable="0" vertex="1">
          <mxGeometry x="-0.1351" y="2" relative="1" as="geometry">
            <mxPoint as="offset" />
          </mxGeometry>
        </mxCell>
        <mxCell id="C1Eng04ThhKMWw6UEXgd-7" value="" style="fontSize=12;html=1;endArrow=ERzeroToMany;startArrow=ERmandOne;rounded=0;entryX=1;entryY=0.5;entryDx=0;entryDy=0;edgeStyle=orthogonalEdgeStyle;exitX=0.231;exitY=0.997;exitDx=0;exitDy=0;exitPerimeter=0;" parent="1" source="3RPS1Pi8BJswCtEHdRL8-2" target="DgBcW-xIMPE_JQ0PkF-i-5" edge="1">
          <mxGeometry width="100" height="100" relative="1" as="geometry">
            <mxPoint x="300" y="1310" as="sourcePoint" />
            <mxPoint x="140" y="1580" as="targetPoint" />
            <Array as="points">
              <mxPoint x="301" y="1495" />
            </Array>
          </mxGeometry>
        </mxCell>
        <mxCell id="jByyaHIUCgrPr7PjAFbw-8" value="Содержит" style="edgeLabel;html=1;align=center;verticalAlign=middle;resizable=0;points=[];" parent="C1Eng04ThhKMWw6UEXgd-7" connectable="0" vertex="1">
          <mxGeometry x="0.1164" relative="1" as="geometry">
            <mxPoint as="offset" />
          </mxGeometry>
        </mxCell>
        <mxCell id="MWFGD10UnWU8lFlHRN0M-3" value="Социальные сети автора" style="swimlane;childLayout=stackLayout;horizontal=1;startSize=30;horizontalStack=0;rounded=1;fontSize=20;fontStyle=1;strokeWidth=2;resizeParent=0;resizeLast=1;shadow=0;dashed=0;align=center;labelBackgroundColor=#FFFFFF;labelBorderColor=none;" parent="1" vertex="1">
          <mxGeometry x="-470" y="1367.82" width="260.04" height="76.25" as="geometry" />
        </mxCell>
        <mxCell id="MWFGD10UnWU8lFlHRN0M-4" value="*Наименование соц.сети&#xa;ссылка на личную страницу" style="align=left;strokeColor=none;fillColor=none;spacingLeft=4;fontSize=12;verticalAlign=top;resizable=0;rotatable=0;part=1;labelBackgroundColor=#FFFFFF;labelBorderColor=none;" parent="MWFGD10UnWU8lFlHRN0M-3" vertex="1">
          <mxGeometry y="30" width="260.04" height="46.25" as="geometry" />
        </mxCell>
        <mxCell id="MWFGD10UnWU8lFlHRN0M-5" value="Образование автора" style="swimlane;childLayout=stackLayout;horizontal=1;startSize=30;horizontalStack=0;rounded=1;fontSize=20;fontStyle=1;strokeWidth=2;resizeParent=0;resizeLast=1;shadow=0;dashed=0;align=center;labelBackgroundColor=#FFFFFF;labelBorderColor=none;" parent="1" vertex="1">
          <mxGeometry x="-470" y="1475.94" width="260" height="116.25" as="geometry" />
        </mxCell>
        <mxCell id="MWFGD10UnWU8lFlHRN0M-6" value="*Тип образования&#xa;Уровень образования&#xa;Наименование учебного заведения&#xa;Наименование специализации&#xa;Год окончания" style="align=left;strokeColor=none;fillColor=none;spacingLeft=4;fontSize=12;verticalAlign=top;resizable=0;rotatable=0;part=1;labelBackgroundColor=#FFFFFF;labelBorderColor=none;" parent="MWFGD10UnWU8lFlHRN0M-5" vertex="1">
          <mxGeometry y="30" width="260" height="86.25" as="geometry" />
        </mxCell>
        <mxCell id="MWFGD10UnWU8lFlHRN0M-9" value="Стиль работ" style="swimlane;childLayout=stackLayout;horizontal=1;startSize=30;horizontalStack=0;rounded=1;fontSize=20;fontStyle=1;strokeWidth=2;resizeParent=0;resizeLast=1;shadow=0;dashed=0;align=center;labelBackgroundColor=#FFFFFF;labelBorderColor=none;" parent="1" vertex="1">
          <mxGeometry x="-69.99999999999997" y="1710" width="210.04" height="60" as="geometry" />
        </mxCell>
        <mxCell id="MWFGD10UnWU8lFlHRN0M-10" value="*Наименование стиля" style="align=left;strokeColor=none;fillColor=none;spacingLeft=4;fontSize=12;verticalAlign=top;resizable=0;rotatable=0;part=1;labelBackgroundColor=#FFFFFF;labelBorderColor=none;" parent="MWFGD10UnWU8lFlHRN0M-9" vertex="1">
          <mxGeometry y="30" width="210.04" height="30" as="geometry" />
        </mxCell>
        <mxCell id="MWFGD10UnWU8lFlHRN0M-12" value="Цена " style="swimlane;childLayout=stackLayout;horizontal=1;startSize=30;horizontalStack=0;rounded=1;fontSize=20;fontStyle=1;strokeWidth=2;resizeParent=0;resizeLast=1;shadow=0;dashed=0;align=center;labelBackgroundColor=#FFFFFF;labelBorderColor=none;arcSize=23;" parent="1" vertex="1">
          <mxGeometry x="1280" y="1653.12" width="210" height="116.88" as="geometry" />
        </mxCell>
        <mxCell id="MWFGD10UnWU8lFlHRN0M-13" value="*Id Товара&#xa;Оригинал/копия&#xa;Дата &#xa;Цена&#xa;Валюта " style="align=left;strokeColor=none;fillColor=none;spacingLeft=4;fontSize=12;verticalAlign=top;resizable=0;rotatable=0;part=1;labelBackgroundColor=#FFFFFF;labelBorderColor=none;" parent="MWFGD10UnWU8lFlHRN0M-12" vertex="1">
          <mxGeometry y="30" width="210" height="86.88" as="geometry" />
        </mxCell>
        <mxCell id="MWFGD10UnWU8lFlHRN0M-16" value="Оплата подписки" style="swimlane;childLayout=stackLayout;horizontal=1;startSize=30;horizontalStack=0;rounded=1;fontSize=20;fontStyle=1;strokeWidth=2;resizeParent=0;resizeLast=1;shadow=0;dashed=0;align=center;labelBackgroundColor=#FFFFFF;labelBorderColor=none;" parent="1" vertex="1">
          <mxGeometry x="630" y="660" width="233" height="100" as="geometry">
            <mxRectangle x="530" y="-750" width="310" height="40" as="alternateBounds" />
          </mxGeometry>
        </mxCell>
        <mxCell id="MWFGD10UnWU8lFlHRN0M-17" value="*Стоимость подписки&#xa;Способ оплаты&#xa;Статус оплаты&#xa;Дата оплаты" style="align=left;strokeColor=none;fillColor=none;spacingLeft=4;fontSize=12;verticalAlign=top;resizable=0;rotatable=0;part=1;labelBackgroundColor=#FFFFFF;labelBorderColor=none;" parent="MWFGD10UnWU8lFlHRN0M-16" vertex="1">
          <mxGeometry y="30" width="233" height="70" as="geometry" />
        </mxCell>
        <mxCell id="jByyaHIUCgrPr7PjAFbw-1" value="" style="fontSize=12;html=1;endArrow=ERzeroToOne;startArrow=ERmandOne;rounded=0;entryX=0;entryY=0.5;entryDx=0;entryDy=0;exitX=1;exitY=0.25;exitDx=0;exitDy=0;" parent="1" source="aespSKR9xNxKYvrnNXnA-8" target="MWFGD10UnWU8lFlHRN0M-16" edge="1">
          <mxGeometry width="100" height="100" relative="1" as="geometry">
            <mxPoint x="500" y="725" as="sourcePoint" />
            <mxPoint x="539" y="648" as="targetPoint" />
          </mxGeometry>
        </mxCell>
        <mxCell id="jByyaHIUCgrPr7PjAFbw-3" value="Содержит" style="edgeLabel;html=1;align=center;verticalAlign=middle;resizable=0;points=[];" parent="jByyaHIUCgrPr7PjAFbw-1" connectable="0" vertex="1">
          <mxGeometry x="-0.0559" y="1" relative="1" as="geometry">
            <mxPoint as="offset" />
          </mxGeometry>
        </mxCell>
        <mxCell id="jByyaHIUCgrPr7PjAFbw-22" value="" style="fontSize=12;html=1;endArrow=ERmandOne;startArrow=ERzeroToMany;rounded=0;exitX=-0.003;exitY=0.069;exitDx=0;exitDy=0;endFill=0;startFill=0;exitPerimeter=0;" parent="1" source="MhmhmrWwNw8KA0QfWW8T-5" edge="1">
          <mxGeometry width="100" height="100" relative="1" as="geometry">
            <mxPoint x="1170" y="1922.37" as="sourcePoint" />
            <mxPoint x="1130" y="1840" as="targetPoint" />
          </mxGeometry>
        </mxCell>
        <mxCell id="jByyaHIUCgrPr7PjAFbw-25" value="Содержит" style="edgeLabel;html=1;align=center;verticalAlign=middle;resizable=0;points=[];" parent="jByyaHIUCgrPr7PjAFbw-22" connectable="0" vertex="1">
          <mxGeometry x="-0.2529" y="-1" relative="1" as="geometry">
            <mxPoint x="-15" y="3" as="offset" />
          </mxGeometry>
        </mxCell>
        <mxCell id="jByyaHIUCgrPr7PjAFbw-33" value="" style="fontSize=12;html=1;endArrow=ERoneToMany;startArrow=ERmandOne;rounded=0;exitX=0.5;exitY=1;exitDx=0;exitDy=0;" parent="1" source="DgBcW-xIMPE_JQ0PkF-i-5" edge="1">
          <mxGeometry width="100" height="100" relative="1" as="geometry">
            <mxPoint x="270" y="1710" as="sourcePoint" />
            <mxPoint x="40" y="1710" as="targetPoint" />
          </mxGeometry>
        </mxCell>
        <mxCell id="jByyaHIUCgrPr7PjAFbw-34" value="Содержит" style="edgeLabel;html=1;align=center;verticalAlign=middle;resizable=0;points=[];" parent="jByyaHIUCgrPr7PjAFbw-33" connectable="0" vertex="1">
          <mxGeometry x="0.0841" y="-2" relative="1" as="geometry">
            <mxPoint as="offset" />
          </mxGeometry>
        </mxCell>
        <mxCell id="jByyaHIUCgrPr7PjAFbw-41" value="" style="fontSize=12;html=1;endArrow=ERzeroToMany;startArrow=ERmandOne;rounded=0;entryX=1;entryY=0.25;entryDx=0;entryDy=0;exitX=0.001;exitY=0.165;exitDx=0;exitDy=0;exitPerimeter=0;" parent="1" target="MWFGD10UnWU8lFlHRN0M-4" edge="1" source="DgBcW-xIMPE_JQ0PkF-i-5">
          <mxGeometry width="100" height="100" relative="1" as="geometry">
            <mxPoint x="-240" y="1470" as="sourcePoint" />
            <mxPoint x="-360" y="1440" as="targetPoint" />
          </mxGeometry>
        </mxCell>
        <mxCell id="jByyaHIUCgrPr7PjAFbw-43" value="Содержит" style="edgeLabel;html=1;align=center;verticalAlign=middle;resizable=0;points=[];" parent="jByyaHIUCgrPr7PjAFbw-41" connectable="0" vertex="1">
          <mxGeometry x="0.1957" y="2" relative="1" as="geometry">
            <mxPoint x="14" y="-6" as="offset" />
          </mxGeometry>
        </mxCell>
        <mxCell id="jByyaHIUCgrPr7PjAFbw-44" value="Аналитика" style="swimlane;childLayout=stackLayout;horizontal=1;startSize=30;horizontalStack=0;rounded=1;fontSize=20;fontStyle=1;strokeWidth=2;resizeParent=0;resizeLast=1;shadow=0;dashed=0;align=center;labelBackgroundColor=#FFFFFF;labelBorderColor=none;" parent="1" vertex="1">
          <mxGeometry x="1600" y="1470" width="260" height="180" as="geometry">
            <mxRectangle x="530" y="-750" width="310" height="40" as="alternateBounds" />
          </mxGeometry>
        </mxCell>
        <mxCell id="jByyaHIUCgrPr7PjAFbw-45" value="*Наименование аналитики&#xa;Изображение &#xa;Годовой оборот&#xa;Мировой рейтинг&#xa;Индекс цен&#xa;Географическое распределение&#xa;Распределение по ценовым сегментам&#xa;Распределение по категориям&#xa;Дата оценки" style="align=left;strokeColor=none;fillColor=none;spacingLeft=4;fontSize=12;verticalAlign=top;resizable=0;rotatable=0;part=1;labelBackgroundColor=#FFFFFF;labelBorderColor=none;" parent="jByyaHIUCgrPr7PjAFbw-44" vertex="1">
          <mxGeometry y="30" width="260" height="150" as="geometry" />
        </mxCell>
        <mxCell id="jByyaHIUCgrPr7PjAFbw-54" value="" style="fontSize=12;html=1;endArrow=ERzeroToMany;startArrow=ERmandOne;rounded=0;entryX=0.994;entryY=0.379;entryDx=0;entryDy=0;exitX=0.005;exitY=0.68;exitDx=0;exitDy=0;entryPerimeter=0;exitPerimeter=0;" parent="1" source="DgBcW-xIMPE_JQ0PkF-i-5" target="MWFGD10UnWU8lFlHRN0M-6" edge="1">
          <mxGeometry width="100" height="100" relative="1" as="geometry">
            <mxPoint x="-370" y="1540" as="sourcePoint" />
            <mxPoint x="-544" y="1536" as="targetPoint" />
          </mxGeometry>
        </mxCell>
        <mxCell id="jByyaHIUCgrPr7PjAFbw-55" value="Содержит" style="edgeLabel;html=1;align=center;verticalAlign=middle;resizable=0;points=[];" parent="jByyaHIUCgrPr7PjAFbw-54" connectable="0" vertex="1">
          <mxGeometry x="0.1957" y="2" relative="1" as="geometry">
            <mxPoint as="offset" />
          </mxGeometry>
        </mxCell>
        <mxCell id="jByyaHIUCgrPr7PjAFbw-60" value="" style="edgeStyle=entityRelationEdgeStyle;fontSize=12;html=1;endArrow=ERzeroToOne;startArrow=ERmandOne;rounded=0;exitX=1;exitY=0.25;exitDx=0;exitDy=0;entryX=-0.015;entryY=0.395;entryDx=0;entryDy=0;entryPerimeter=0;" parent="1" target="jByyaHIUCgrPr7PjAFbw-45" edge="1">
          <mxGeometry width="100" height="100" relative="1" as="geometry">
            <mxPoint x="1490" y="1559.06" as="sourcePoint" />
            <mxPoint x="1910" y="1545.9299999999998" as="targetPoint" />
            <Array as="points">
              <mxPoint x="1900" y="1545.31" />
            </Array>
          </mxGeometry>
        </mxCell>
        <mxCell id="MhmhmrWwNw8KA0QfWW8T-4" value="Фотогалерея" style="swimlane;childLayout=stackLayout;horizontal=1;startSize=30;horizontalStack=0;rounded=1;fontSize=20;fontStyle=1;strokeWidth=2;resizeParent=0;resizeLast=1;shadow=0;dashed=0;align=center;labelBackgroundColor=#FFFFFF;labelBorderColor=none;arcSize=23;" parent="1" vertex="1">
          <mxGeometry x="1280" y="1807" width="210" height="80" as="geometry" />
        </mxCell>
        <mxCell id="MhmhmrWwNw8KA0QfWW8T-5" value="Id Товара&#xa;Фото" style="align=left;strokeColor=none;fillColor=none;spacingLeft=4;fontSize=12;verticalAlign=top;resizable=0;rotatable=0;part=1;labelBackgroundColor=#FFFFFF;labelBorderColor=none;" parent="MhmhmrWwNw8KA0QfWW8T-4" vertex="1">
          <mxGeometry y="30" width="210" height="50" as="geometry" />
        </mxCell>
        <mxCell id="MhmhmrWwNw8KA0QfWW8T-6" value="" style="fontSize=12;html=1;endArrow=ERmandOne;startArrow=ERzeroToMany;rounded=0;exitX=-0.001;exitY=0.464;exitDx=0;exitDy=0;endFill=0;startFill=0;exitPerimeter=0;" parent="1" source="MWFGD10UnWU8lFlHRN0M-13" edge="1">
          <mxGeometry width="100" height="100" relative="1" as="geometry">
            <mxPoint x="1280" y="1720" as="sourcePoint" />
            <mxPoint x="1130" y="1723" as="targetPoint" />
          </mxGeometry>
        </mxCell>
        <mxCell id="MhmhmrWwNw8KA0QfWW8T-7" value="Содержит" style="edgeLabel;html=1;align=center;verticalAlign=middle;resizable=0;points=[];" parent="MhmhmrWwNw8KA0QfWW8T-6" connectable="0" vertex="1">
          <mxGeometry x="-0.2529" y="-1" relative="1" as="geometry">
            <mxPoint x="-15" y="3" as="offset" />
          </mxGeometry>
        </mxCell>
        <mxCell id="MhmhmrWwNw8KA0QfWW8T-9" value="Цена определяется на ежемесячной основе и имеется данных минимум за 3 последних года, для построения красивых графиков изменеия цены&lt;br&gt;кроме того есть цена копии (постера)&amp;nbsp;&lt;div&gt;можно но необязательно хранить историю цены постера&amp;nbsp;&lt;/div&gt;" style="whiteSpace=wrap;html=1;aspect=fixed;fillColor=#fff2cc;strokeColor=#d6b656;" parent="1" vertex="1">
          <mxGeometry x="1600" y="1700" width="170" height="170" as="geometry" />
        </mxCell>
      </root>
    </mxGraphModel>
  </diagram>
</mxfile>
